<svg xmlns="http://www.w3.org/2000/svg" xmlns:xlink="http://www.w3.org/1999/xlink" viewBox="0 0 2059.14 620.96"><defs><style>.cls-1,.cls-6{fill:#fff;}.cls-1,.cls-2,.cls-3,.cls-4{fill-rule:evenodd;}.cls-2{fill:url(#linear-gradient);}.cls-3{fill:url(#linear-gradient-2);}.cls-4{fill:url(#linear-gradient-3);}.cls-5{fill:url(#linear-gradient-4);}.cls-7{fill:url(#linear-gradient-5);}</style><linearGradient id="linear-gradient" x1="606.05" y1="5010.38" x2="958.99" y2="5010.38" gradientTransform="matrix(1, 0, 0, -1, 0, 5223.72)" gradientUnits="userSpaceOnUse"><stop offset="0" stop-color="#016699"/><stop offset="0.54" stop-color="#0095c5"/><stop offset="1" stop-color="#00c0ed"/></linearGradient><linearGradient id="linear-gradient-2" x1="778.78" y1="5028.34" x2="1022.46" y2="5028.34" xlink:href="#linear-gradient"/><linearGradient id="linear-gradient-3" x1="810.44" y1="5073.68" x2="995.22" y2="5073.68" xlink:href="#linear-gradient"/><linearGradient id="linear-gradient-4" x1="60.09" y1="620.96" x2="60.09" y2="500.97" gradientTransform="matrix(1, 0, 0, 1, 0, 0)" xlink:href="#linear-gradient"/><linearGradient id="linear-gradient-5" x1="931.72" y1="620.96" x2="931.72" y2="500.97" gradientTransform="matrix(1, 0, 0, 1, 0, 0)" xlink:href="#linear-gradient"/></defs><g id="Layer_2" data-name="Layer 2"><g id="Layer_1-2" data-name="Layer 1"><path class="cls-1" d="M102.33,256.33h78.24c3.24,0,5.46-.61,6.63-1.83s1.8-3.5,1.8-6.85V179.21c0-3.35-.59-5.62-1.77-6.84s-3.39-1.83-6.63-1.83H102.33v85.79ZM2042.07,424.7h17.07l-30.45-22.21-84.75-140.76,80.31-131,34.89-25.45h-98L1905,197l-55.19-91.72H1768l95.71,159L1765.34,424.7H1844l58.68-95.7,57.61,95.67h81.78Zm-2013.13,0H0l28.94-24.81V130.1L0,105.29H201.35q61,0,61,63v90.35q0,63-61,63h-99V424.7ZM1077.48,105.29h213.08V171H1150.87v58h111.84v64.79H1150.87V359h139.69v65.7H1077.48Zm446.93,0h71.18V424.7h-68.08l-115.82-198v198h-71.18V105.29h74.57l109.33,187.85ZM1657.47,424.7V105.29h73.39V424.7Zm-1350,0V105.29h73.39V228h99.46V105.29H553.7V424.7H480.29v-130H380.83v130Z"/><path class="cls-2" d="M750.34,101.39a535,535,0,0,1-49.7-20.84Q643.22,50.78,636.13,0a120,120,0,0,0,23.64,148.28q-17.16-.51-53.72-22.84a189.35,189.35,0,0,0,76.16,62.5l-26.86-3.19A167,167,0,0,0,725.49,234l-23.65,2a91,91,0,0,0,52.49,22A63.54,63.54,0,0,0,776,321.79a69.72,69.72,0,0,1,9.64-42.07,82.72,82.72,0,0,0,16,62.12,27.3,27.3,0,0,1,28.46-9.63,44.83,44.83,0,0,1-60.52,44.5q-89.8-38.47-85.75-147.48l-15.24-16.84A163.3,163.3,0,0,0,719.47,373.5,158.13,158.13,0,0,1,656,200.17l-18.83-17c-30.5,99.41,25.36,204.72,124.77,235.22a188.26,188.26,0,0,0,75.23,7.22,111,111,0,0,0,79.34-151.47,106.57,106.57,0,0,1,42.48-97A76.31,76.31,0,0,0,865.47,231c-.27,1-.51,2-.74,3q15.33-14.08,23-14.81a66.14,66.14,0,0,1-25.23,49.27q-31.75-2.5-52.11-29.64-.57-13.35,26-14,31.7-76.9-86.15-123.43Z"/><path class="cls-3" d="M800.2,62.24a182.85,182.85,0,0,1,169,59c56.68,64.23,54.74,155.69,20.41,230.22,60.93-93.34,34.67-218.4-58.67-279.34A201.87,201.87,0,0,0,778.78,43.68Q789.93,52.44,800.2,62.24Z"/><path class="cls-4" d="M940.05,107.61A157.19,157.19,0,0,0,810.44,72.52c4.44,4.69,8.7,9.48,12.82,14.44a157.44,157.44,0,0,1,171.8,141.63c.05.47.09.94.13,1.41a157,157,0,0,0-55.14-122.4Z"/><path class="cls-5" d="M60.19,621H0V501H60.19a60,60,0,0,1,0,120Zm-45-15H60.19a45,45,0,0,0,0-90.09h-45Z"/><path class="cls-6" d="M151.24,500.78h15.14V621H151.24Z"/><path class="cls-6" d="M197.45,561a60,60,0,0,1,116.49-20.2H297.63a45,45,0,1,0,2.33,35H259.58v-15h57.85v.2a60,60,0,0,1-120,0Z"/><path class="cls-6" d="M348.5,500.78h15.14V621H348.5Z"/><path class="cls-6" d="M394.7,501.55H514.88V516.7H462.27V621H447.32V516.7H394.7Z"/><path class="cls-6" d="M543.61,621H528.47V561a60,60,0,1,1,120,0v60h-15V588.54h-89.9Zm0-47.57h89.9V561a45,45,0,1,0-89.9,0Z"/><path class="cls-6" d="M694.66,500.78v105H763V621H679.52V500.78Z"/><path class="cls-7" d="M991.71,587.18a33.84,33.84,0,0,1-34,33.78h-86V606h86a18.74,18.74,0,1,0,0-37.47H905.51a33.79,33.79,0,1,1,0-67.57h86v14.95h-86a18.74,18.74,0,1,0,0,37.47v.2h52.22A33.68,33.68,0,0,1,991.71,587.18Z"/><path class="cls-6" d="M1022.77,561a60,60,0,1,1,60,60A60,60,0,0,1,1022.77,561Zm15,0a45,45,0,1,0,45-45.05A45,45,0,0,0,1037.72,561Z"/><path class="cls-6" d="M1189,500.78v105h68.35V621h-83.49V500.78Z"/><path class="cls-6" d="M1393.4,501h14.95v60a60,60,0,0,1-120,0V501h15.14v60a44.95,44.95,0,1,0,89.89,0Z"/><path class="cls-6" d="M1439.42,501.55H1559.6V516.7H1507V621h-15V516.7h-52.61Z"/><path class="cls-6" d="M1590.66,500.78h15.14V621h-15.14Z"/><path class="cls-6" d="M1636.86,561a60,60,0,1,1,60,60A60,60,0,0,1,1636.86,561Zm15,0a45,45,0,1,0,45-45.05A45,45,0,0,0,1651.81,561Z"/><path class="cls-6" d="M1908.09,561v60H1893V561a44.95,44.95,0,1,0-89.89,0v60h-15.15V561h.2a60,60,0,1,1,120,0Z"/><path class="cls-6" d="M2059.14,587.18a33.84,33.84,0,0,1-34,33.78h-86V606h86a18.74,18.74,0,1,0,0-37.47h-52.22a33.79,33.79,0,1,1,0-67.57h86v14.95h-86a18.74,18.74,0,1,0,0,37.47v.2h52.22A33.68,33.68,0,0,1,2059.14,587.18Z"/></g></g></svg>